<?xml version="1.0" standalone="no"?>
<!DOCTYPE svg PUBLIC "-//W3C//DTD SVG 20010904//EN"
 "http://www.w3.org/TR/2001/REC-SVG-20010904/DTD/svg10.dtd">
<svg version="1.0" xmlns="http://www.w3.org/2000/svg"
 width="100.000000pt" height="100.000000pt" viewBox="0 0 100.000000 100.000000"
 preserveAspectRatio="xMidYMid meet">
<metadata>
Created by potrace 1.14, written by Peter Selinger 2001-2017
</metadata>
<g transform="translate(0.000000,100.000000) scale(0.100000,-0.100000)"
fill="#000000" stroke="none">
<path d="M391 914 c-74 -20 -141 -58 -191 -109 l-42 -43 28 -52 c16 -29 44
-64 63 -79 30 -22 46 -26 115 -29 106 -4 121 -7 150 -39 36 -38 57 -127 59
-251 2 -101 1 -107 -18 -107 -18 0 -21 9 -27 100 -9 121 -23 187 -50 220 -18
23 -26 25 -99 25 -119 0 -173 28 -227 119 l-25 43 -18 -33 c-70 -134 -34 -353
76 -459 43 -41 56 -33 79 49 9 32 30 79 47 104 35 53 122 122 144 113 27 -10
16 -33 -36 -72 -56 -43 -92 -96 -109 -164 -6 -25 -20 -57 -31 -72 l-19 -28 49
-25 c75 -38 175 -52 262 -37 100 17 114 27 114 82 1 34 13 68 45 130 77 149
59 229 -83 377 -76 79 -92 113 -54 113 25 0 172 -163 202 -224 46 -94 42 -156
-19 -282 -26 -56 -46 -110 -44 -120 3 -16 14 -9 64 39 44 41 71 78 95 130 31
67 34 79 34 172 0 92 -3 106 -32 168 -42 88 -119 169 -200 209 -72 35 -80 34
-163 -27 -33 -24 -55 -53 -84 -110 -40 -80 -99 -134 -131 -121 -25 9 -17 33
19 55 23 14 43 41 64 84 30 63 74 117 122 149 l25 17 -50 0 c-27 0 -74 -7
-104 -15z"/>
</g>
</svg>
